# xmcd CD database file
#
# Track frame offsets:
#	150
#	16330
#	26688
#	42055
#	56241
#	73860
#	88861
#	105948
#	123380
#	133984
#	155881
#	180037
#
# Disc length: 2696 seconds
#
# Revision: 0
# Processed by: cddbd v1.5PL3 Copyright (c) Steve Scherf et al.
# Submitted via: CDex 1.60beta1
#
DISCID=a00a860c
DTITLE=Dixieland Kings - The Best Of Dixieland [CD3]
DYEAR=1900
DGENRE=Jazz
TTITLE0=Back Home In Indiana
TTITLE1=Ja-Da
TTITLE2=Chicago
TTITLE3=April Showers
TTITLE4=Margie
TTITLE5=When The Saints Go Marching In
TTITLE6=Melancholy Baby
TTITLE7=Chinatown My Chinatown
TTITLE8=If You Knew Susie
TTITLE9=12th Street Rag
TTITLE10=Down By The Riverside
TTITLE11=Take Me Out To The Ballgame
EXTD=
EXTT0=
EXTT1=
EXTT2=
EXTT3=
EXTT4=
EXTT5=
EXTT6=
EXTT7=
EXTT8=
EXTT9=
EXTT10=
EXTT11=
PLAYORDER=
